#define im_width 32
#define im_height 32
static char im_bits[] = {
0x22,0x91,0x44,0x49,0x4a,0x92,0x14,0x49,0x24,0x49,0x22,0x22,0x24,0x89,0xa4,
0x48,0x92,0x24,0x12,0x25,0x84,0x48,0x52,0x44,0x52,0x92,0x84,0x12,0x44,0x92,
0x28,0x52,0x12,0x49,0xa2,0x44,0x24,0x49,0x8a,0x14,0x92,0x90,0x10,0xa2,0x92,
0x12,0xa5,0x08,0x44,0xa4,0x48,0x52,0x14,0x89,0x92,0x44,0xa2,0x24,0x44,0x12,
0x88,0xa4,0x94,0x54,0x52,0x12,0x21,0x21,0x04,0x22,0x25,0x4a,0x52,0x49,0x44,
0x21,0x24,0x92,0x14,0x4a,0x92,0x24,0x51,0x11,0x92,0x24,0x05,0x52,0x24,0x92,
0xa8,0x84,0x44,0x22,0x22,0x29,0x92,0x44,0x49,0x92,0x92,0x14,0x4a,0x22,0x24,
0xa2,0x10,0x49,0x49,0x8a,0x52,0x12,0x24,0x51,0x84,0xa4,0x44,0x84,0x94,0x08,
0x92,0x52,0x22,0xa5,0x24,0x94,0x48,0x24
};
