#define im_width 32
#define im_height 32
static char im_bits[] = {
0x92,0x92,0x54,0x52,0xa4,0x94,0x42,0x45,0x09,0x29,0x2a,0x2a,0x55,0xa2,0xa4,
0x48,0x94,0x94,0x92,0x92,0x51,0x25,0x92,0x24,0x8a,0x48,0x49,0x4a,0x92,0x52,
0x52,0x51,0x54,0x8a,0x84,0x24,0x84,0x28,0x99,0x4a,0x29,0xa5,0x22,0x29,0xa9,
0x24,0x4a,0x42,0x22,0x49,0x29,0x55,0x4a,0x4a,0xa2,0x48,0x24,0x91,0x14,0x25,
0x49,0xa5,0x52,0x49,0x12,0x0a,0x89,0x94,0xaa,0x52,0x29,0x25,0x24,0x14,0xa5,
0x48,0xa4,0x52,0x88,0x52,0x49,0xa4,0x52,0x8a,0x52,0x09,0x95,0x28,0x8a,0x52,
0x22,0xa5,0x90,0xa4,0xa4,0x24,0x55,0x4a,0x8a,0x92,0x45,0x49,0x29,0x24,0x28,
0x12,0x52,0x49,0xa5,0xaa,0x84,0x52,0x48,0x24,0x55,0x8a,0x4a,0x49,0x91,0x28,
0x92,0x14,0x2a,0xa5,0x92,0xa2,0xa2,0x24
};
