#define im_width 32
#define im_height 32
static char im_bits[] = {
0x00,0x04,0x80,0x04,0x42,0x40,0x00,0x00,0x10,0x08,0x02,0x10,0x80,0x00,0x48,
0x02,0x00,0x10,0x00,0x20,0x09,0x81,0x08,0x00,0x00,0x20,0x20,0x01,0x20,0x02,
0x01,0x24,0x04,0x00,0x00,0x00,0x40,0x24,0x24,0x01,0x00,0x00,0x00,0x08,0x89,
0x00,0x01,0x20,0x00,0x24,0x24,0x01,0x10,0x00,0x00,0x04,0x80,0x40,0x00,0x20,
0x02,0x08,0x92,0x00,0x10,0x01,0x00,0x04,0x00,0x40,0x02,0x10,0x44,0x04,0x48,
0x00,0x00,0x08,0x00,0x21,0x08,0x40,0x00,0x00,0x80,0x00,0x24,0x04,0x10,0x42,
0x00,0x21,0x01,0x08,0x01,0x00,0x20,0x00,0x24,0x04,0x82,0x10,0x00,0x10,0x00,
0x80,0x40,0x00,0x10,0x02,0x84,0x10,0x84,0x10,0x00,0x00,0x00,0x80,0x08,0x22,
0x00,0x02,0x40,0x00,0x24,0x10,0x01,0x04
};
