#define im_width 32
#define im_height 32
static char im_bits[] = {
0x90,0x82,0x80,0x04,0x01,0x08,0x10,0x20,0x24,0x22,0x81,0x04,0x00,0x00,0x12,
0x20,0x24,0x09,0x80,0x04,0x00,0x40,0x12,0x20,0x24,0x09,0x80,0x04,0x00,0x40,
0x12,0x20,0x24,0x09,0x80,0x04,0x00,0x40,0x12,0x20,0x24,0x09,0x80,0x08,0x00,
0x80,0x08,0x01,0x24,0x09,0x02,0x28,0x00,0x20,0x90,0x00,0x24,0x89,0x00,0x22,
0x00,0x00,0x24,0x04,0x24,0x49,0x02,0x20,0x00,0x00,0x90,0x04,0x24,0x49,0x04,
0x20,0x00,0x80,0x90,0x04,0x24,0x09,0x00,0x10,0x00,0x80,0x24,0x21,0x24,0x09,
0x00,0x00,0x00,0x40,0x92,0x24,0x24,0x09,0x00,0x00,0x00,0x40,0x92,0x24,0x24,
0x09,0x00,0x00,0x00,0x40,0x92,0x24,0x24,0x09,0x00,0x00,0x00,0x40,0x92,0x24,
0x24,0x09,0x00,0x00,0x00,0x40,0x92,0x24
};
