#define im_width 32
#define im_height 32
static char im_bits[] = {
0x00,0x20,0x00,0x04,0x20,0x00,0x00,0x10,0x00,0x01,0x11,0x00,0x02,0x04,0x80,
0x00,0x00,0x20,0x00,0x20,0x20,0x00,0x08,0x02,0x04,0x80,0x00,0x00,0x80,0x04,
0x20,0x00,0x00,0x00,0x01,0x22,0x08,0x10,0x00,0x00,0x00,0x00,0x22,0x00,0x20,
0x01,0x00,0x04,0x00,0x10,0x40,0x00,0x02,0x00,0x04,0x10,0x40,0x20,0x00,0x00,
0x04,0x82,0x40,0x02,0x00,0x00,0x08,0x20,0x20,0x00,0x00,0x00,0x00,0x22,0x00,
0x02,0x02,0x00,0x21,0x00,0x20,0x00,0x00,0x08,0x00,0x11,0x04,0x00,0x00,0x00,
0x20,0x20,0x08,0x80,0x00,0x02,0x40,0x04,0x40,0x00,0x00,0x00,0x02,0x00,0x00,
0x08,0x00,0x04,0x89,0x20,0x44,0x10,0x00,0x00,0x00,0x00,0x00,0x00,0x00,0x00,
0x88,0x48,0x88,0x10,0x00,0x00,0x00,0x00
};
