#define im_width 32
#define im_height 32
static char im_bits[] = {
0x92,0x24,0x49,0x12,0x94,0x24,0x49,0x52,0x22,0x49,0x92,0x24,0x4a,0x92,0x24,
0x49,0x24,0x49,0x92,0x24,0x49,0x92,0x24,0x49,0x24,0x49,0x92,0x24,0x49,0x92,
0x24,0x49,0x92,0x24,0x49,0x92,0x24,0x49,0x92,0x24,0x52,0x92,0x24,0x49,0x44,
0x92,0x24,0x49,0x2a,0x25,0x49,0x92,0x41,0x48,0x92,0x24,0xaa,0x92,0x24,0x49,
0x88,0x24,0x49,0x49,0x25,0x49,0x12,0x25,0x49,0x92,0x54,0x48,0x94,0x24,0x21,
0x25,0x21,0x49,0x4a,0x49,0x4a,0x92,0x12,0x92,0x92,0x54,0xa4,0x24,0x24,0x21,
0x49,0x92,0x49,0xa5,0x92,0x24,0x12,0x09,0x49,0x92,0x54,0x52,0x92,0x24,0x22,
0x89,0x24,0x49,0x4a,0x2a,0x49,0x4a,0x28,0x91,0x92,0x28,0x22,0x25,0x94,0x42,
0x94,0x48,0x51,0x94,0x22,0x29,0x45,0x25
};
