#define im_width 32
#define im_height 32
static char im_bits[] = {
0x4a,0x84,0x02,0x40,0x00,0x11,0x54,0x15,0xaa,0xa4,0x00,0xa0,0x00,0x04,0x55,
0x05,0xaa,0x50,0x00,0x28,0x00,0x05,0x55,0x41,0x2a,0x50,0x00,0x0a,0x40,0x85,
0xaa,0x50,0x0a,0x10,0x00,0x02,0xa8,0x52,0x55,0x54,0x02,0x08,0x80,0x00,0x50,
0x41,0x15,0x55,0x0a,0x2a,0x20,0x00,0xa0,0x80,0x4a,0x55,0x0a,0x2a,0x20,0x00,
0xa0,0x40,0x45,0x55,0x0a,0x0a,0x08,0x00,0xa0,0x50,0x51,0x55,0x0a,0x02,0x02,
0x00,0xa0,0x54,0x54,0x55,0x0a,0x82,0x00,0x00,0x50,0x14,0x55,0x55,0x82,0x20,
0x00,0x00,0x14,0x45,0x55,0x55,0x42,0x08,0x00,0x00,0x14,0x51,0x55,0x55,0x40,
0x04,0x00,0x00,0x15,0x51,0x55,0x55,0x40,0x04,0x00,0x00,0x15,0x51,0x55,0x55,
0xa0,0x04,0x00,0x00,0x05,0x50,0x55,0x55
};
