#define im_width 32
#define im_height 32
static char im_bits[] = {
0x28,0x4a,0xaa,0x00,0x41,0x48,0x08,0x55,0x94,0x22,0x51,0x08,0x11,0x24,0x42,
0x51,0x44,0x41,0x09,0x02,0x11,0x0a,0xa8,0x54,0xa4,0x50,0x01,0x02,0x04,0x05,
0xaa,0x54,0x52,0xa8,0x10,0x02,0x04,0x09,0x45,0x54,0xa8,0x50,0x90,0x00,0x02,
0x85,0x12,0x55,0x28,0x28,0x44,0x08,0x45,0x41,0x49,0x51,0x10,0x0a,0x04,0x02,
0xa5,0xa8,0xa8,0x54,0x10,0x41,0x02,0x01,0x22,0x8a,0x28,0x55,0x44,0x24,0x42,
0x08,0x94,0x88,0x14,0x51,0x40,0x22,0xa1,0x04,0x4a,0x24,0x05,0x51,0x10,0x11,
0x28,0x0a,0x45,0xa2,0x42,0x50,0x28,0x09,0x94,0x02,0x01,0x51,0x11,0x54,0x54,
0x04,0x44,0x01,0x02,0x51,0x11,0x55,0x54,0x04,0x4a,0x20,0x40,0xa9,0x08,0x45,
0x0a,0x02,0xa2,0x08,0x50,0xaa,0x08,0x52
};
