#define im_width 32
#define im_height 32
static char im_bits[] = {
0x84,0x00,0x01,0x04,0x00,0x00,0x10,0x10,0x10,0x49,0x84,0x00,0x00,0x00,0x00,
0x20,0x22,0x80,0x10,0x01,0x00,0x09,0x00,0x04,0x40,0x00,0x21,0x20,0x04,0x10,
0x82,0x00,0x00,0x01,0x00,0x04,0x20,0x20,0x08,0x10,0x02,0x02,0x41,0x00,0x04,
0x04,0x00,0x11,0x20,0x20,0x04,0x00,0x40,0x00,0x20,0x20,0x04,0x42,0x08,0x01,
0x00,0x84,0x00,0x04,0x10,0x00,0x20,0x20,0x41,0x08,0x82,0x00,0x00,0x40,0x00,
0x04,0x08,0x01,0x10,0x10,0x40,0x88,0x84,0x00,0x01,0x00,0x00,0x20,0x08,0x01,
0x10,0x01,0x00,0x24,0x01,0x04,0x10,0x00,0x20,0x20,0x81,0x00,0x82,0x00,0x20,
0x24,0x00,0x04,0x02,0x00,0x08,0x10,0x80,0x20,0x41,0x00,0x08,0x04,0x00,0x11,
0x00,0x01,0x02,0x00,0x11,0x20,0x24,0x20
};
