#define im_width 32
#define im_height 32
static char im_bits[] = {
0x00,0x20,0x41,0x20,0x49,0x04,0x02,0x02,0x00,0x21,0x88,0x10,0x11,0x40,0x00,
0x20,0x40,0x02,0x89,0x04,0x04,0x08,0x10,0x00,0x10,0x21,0x82,0x28,0x21,0x40,
0x00,0x01,0x00,0x09,0x12,0x10,0x09,0x00,0x20,0x22,0x20,0x91,0x04,0x00,0x02,
0x02,0x40,0x22,0x10,0x90,0x08,0x08,0x40,0x02,0x81,0x00,0x02,0x10,0x08,0x48,
0x90,0x20,0x20,0x01,0x02,0x82,0x04,0x08,0x20,0x04,0x20,0x21,0x04,0x90,0x08,
0x00,0x88,0x00,0x41,0x24,0x20,0x02,0x00,0x01,0x01,0x50,0x14,0x20,0x44,0x02,
0x81,0x04,0x08,0x04,0x00,0x20,0x40,0x10,0x49,0x02,0x01,0x20,0x00,0x24,0x24,
0x01,0x89,0x00,0x00,0x08,0x10,0x20,0x24,0x21,0x81,0x04,0x00,0x02,0x04,0x08,
0x44,0x10,0x90,0x20,0x08,0x20,0x01,0x01
};
