#define im_width 32
#define im_height 32
static char im_bits[] = {
0x44,0x85,0x52,0x08,0x14,0x10,0x44,0x51,0x42,0xa5,0x10,0x02,0x48,0x08,0xa5,
0x54,0x12,0xa5,0x10,0x02,0x42,0x04,0x42,0x54,0x94,0xa8,0x94,0x00,0x10,0x81,
0x10,0x55,0x22,0x2a,0x22,0x02,0xa4,0x80,0x44,0x54,0x02,0x55,0x92,0x20,0x54,
0x04,0x12,0x45,0x02,0x51,0x48,0x14,0x54,0x84,0x42,0x41,0x80,0x52,0x08,0x14,
0x2a,0x84,0x52,0x41,0x40,0x11,0x04,0x2a,0x15,0xa4,0xa8,0x40,0xa0,0x12,0x41,
0x0a,0x0a,0x40,0x8a,0x50,0x50,0x15,0x11,0x05,0x05,0x41,0x24,0x54,0x28,0x2a,
0x91,0x00,0xa1,0x20,0x22,0x55,0x04,0x45,0x89,0x00,0x54,0x08,0x11,0x55,0x82,
0x52,0x24,0x08,0x14,0x82,0x44,0x51,0xa0,0x28,0x12,0x05,0x0a,0x42,0x44,0x50,
0x50,0x89,0x28,0x05,0x05,0x11,0x01,0x54
};
