#define im_width 32
#define im_height 32
static char im_bits[] = {
0x44,0x4a,0x52,0x2a,0x95,0x94,0x92,0x48,0x28,0x51,0x24,0x95,0x42,0x45,0x49,
0x21,0x2a,0x92,0x12,0x55,0xa4,0x24,0x54,0x44,0x92,0x4a,0x91,0x2a,0x92,0x50,
0x25,0x41,0x24,0x85,0x94,0x2c,0x49,0x2a,0x21,0x49,0x92,0x94,0x4a,0x92,0x24,
0x51,0x94,0x24,0x49,0x8a,0x52,0x52,0x52,0x91,0x84,0x44,0x8a,0x54,0x2a,0x29,
0x28,0x85,0x50,0x4a,0x45,0x28,0xa5,0x90,0x94,0x52,0x0a,0x25,0x52,0xa5,0x54,
0x49,0x24,0x08,0x49,0x52,0x92,0x55,0x92,0x84,0x24,0x42,0x92,0x2a,0x92,0x54,
0x29,0x94,0xa4,0x14,0x45,0x21,0x49,0xa1,0xa8,0x4a,0x12,0x15,0x25,0x54,0x4a,
0xa2,0x48,0x89,0x90,0x94,0x4a,0x29,0x55,0x22,0x11,0x45,0x84,0x2a,0x55,0x54,
0x29,0x44,0x90,0x82,0x52,0x49,0x25,0x2a
};
