#define im_width 32
#define im_height 32
static char im_bits[] = {
0x10,0x89,0x88,0xa4,0x25,0x29,0x29,0x09,0x48,0x44,0x42,0xa4,0x12,0x49,0x4a,
0x11,0xa4,0x24,0x11,0x4a,0x09,0x24,0xa4,0x48,0xa4,0x90,0x12,0x11,0x48,0x45,
0x44,0x52,0x12,0x29,0x29,0x89,0x22,0x21,0x21,0x11,0x94,0x44,0x8a,0xa4,0x91,
0x94,0x28,0x09,0x44,0x42,0x42,0xa4,0x14,0x4a,0x4a,0x11,0xa2,0x10,0x11,0x4a,
0x88,0x52,0xa4,0x48,0x12,0x82,0x12,0x11,0x52,0x2a,0x44,0x52,0x44,0x44,0x29,
0x89,0x94,0x14,0x21,0x11,0x22,0xa1,0x44,0x4a,0x24,0x0a,0x49,0x48,0x92,0x50,
0x92,0x22,0x22,0x45,0x24,0x48,0x44,0x92,0x92,0x22,0x49,0x24,0x44,0x4a,0x24,
0x49,0x91,0x10,0x24,0x11,0x92,0x52,0x92,0xa4,0x24,0x82,0x12,0x89,0x44,0x2a,
0x48,0x24,0x29,0x91,0x91,0x24,0x21,0x12
};
