#define im_width 32
#define im_height 32
static char im_bits[] = {
0x2a,0xa9,0x80,0x08,0x00,0x00,0x14,0x21,0xa4,0x92,0x00,0x88,0x00,0x80,0x24,
0x01,0x4a,0x12,0x00,0x14,0x00,0x20,0xa9,0x20,0x54,0x05,0x04,0x84,0x00,0xa0,
0x80,0x08,0x22,0x02,0x2a,0x20,0x44,0x48,0x80,0x04,0x00,0x01,0x11,0x50,0x29,
0x2a,0x82,0x02,0x00,0x00,0x28,0x48,0x49,0x49,0x81,0x00,0x00,0x00,0x04,0x12,
0x29,0x49,0x50,0x20,0x00,0x04,0x01,0x85,0xa4,0x20,0x24,0x10,0x00,0x8a,0x80,
0x04,0x4a,0x00,0x15,0x20,0x00,0x29,0x40,0x12,0x29,0x80,0x08,0x20,0x80,0x04,
0xa2,0x82,0x12,0x50,0x00,0x10,0x40,0x09,0x25,0x05,0x09,0x00,0x00,0x20,0x20,
0x29,0x29,0x89,0x04,0x01,0x00,0x00,0x10,0xa4,0x52,0x29,0xa2,0x00,0x00,0x01,
0x00,0x4a,0x12,0x24,0x4a,0x00,0x80,0x20
};
