#define im_width 32
#define im_height 32
static char im_bits[] = {
0x90,0x82,0x08,0x20,0x12,0x14,0x21,0x25,0x40,0x00,0x44,0x80,0x8a,0xaa,0x88,
0x14,0x20,0x00,0x22,0x42,0x44,0x52,0x04,0x08,0x02,0x01,0x51,0x22,0x28,0x2a,
0x42,0x20,0x02,0x80,0x08,0x85,0xa4,0x12,0x20,0x10,0x10,0x48,0x85,0x42,0x22,
0x01,0x10,0x08,0x80,0x94,0xa2,0x22,0x15,0x10,0x04,0x24,0x40,0x41,0x90,0x80,
0x09,0x8a,0x12,0x14,0x24,0x20,0x40,0x41,0x80,0x44,0x0a,0x08,0x2a,0x02,0xa1,
0x22,0x40,0x28,0x04,0x24,0x12,0x81,0x90,0x80,0x20,0x14,0x12,0x14,0x82,0x40,
0x40,0x41,0x14,0x8a,0x0a,0x08,0x40,0x20,0xa0,0x22,0x15,0x05,0x05,0x20,0x40,
0x50,0x50,0x85,0x89,0x04,0x02,0x10,0x20,0x52,0x24,0x45,0x45,0x80,0x20,0x08,
0x10,0x25,0x8a,0x20,0x02,0x40,0x00,0x25
};
