#define im_width 32
#define im_height 32
static char im_bits[] = {
0x40,0x02,0x04,0x24,0x02,0x44,0x20,0x00,0x48,0x10,0x82,0x48,0x80,0x00,0x08,
0x01,0x08,0x22,0x01,0x08,0x01,0x04,0x50,0x20,0x28,0x20,0x01,0x01,0x40,0x04,
0x04,0x24,0x00,0x21,0x11,0x01,0x0a,0x00,0x20,0x20,0x20,0x12,0x02,0x02,0x40,
0x40,0x40,0x24,0x02,0x02,0x0a,0x00,0x10,0x48,0x40,0x22,0x44,0x00,0x08,0x08,
0x00,0x12,0x81,0x00,0x44,0x40,0x08,0x48,0x88,0x04,0x20,0x01,0x00,0x20,0x01,
0x08,0x21,0x04,0x24,0x21,0x84,0x20,0x00,0x00,0x00,0x02,0x49,0x24,0x24,0x48,
0x00,0x01,0x80,0x00,0x11,0x20,0x04,0x04,0x84,0x04,0x48,0x48,0x00,0x20,0x00,
0x00,0x24,0x09,0x48,0x92,0x00,0x00,0x02,0x00,0x24,0x12,0x40,0x92,0x40,0x20,
0x04,0x00,0x04,0x04,0x48,0x44,0x80,0x20
};
