#define im_width 32
#define im_height 32
static char im_bits[] = {
0x24,0x91,0x24,0x89,0x49,0x92,0x24,0x29,0x24,0x09,0x91,0x44,0x24,0x29,0x25,
0x49,0x92,0x24,0x88,0x24,0x92,0x48,0x29,0x49,0x44,0x92,0x42,0x92,0x94,0x24,
0x4a,0x22,0x22,0x49,0x29,0x49,0x48,0x12,0x42,0x4a,0x92,0xa4,0x14,0x11,0x92,
0x24,0x51,0x52,0x24,0x49,0x8a,0x44,0x49,0x92,0x90,0x14,0x24,0x49,0x4a,0xa2,
0x24,0x91,0x92,0x24,0x92,0x24,0x24,0x49,0x92,0xa4,0x24,0x49,0x44,0x92,0x92,
0x24,0x94,0x24,0x24,0x49,0x22,0x91,0x92,0x24,0x24,0x25,0x12,0x49,0x92,0x48,
0x49,0x24,0x92,0x12,0x49,0x49,0x44,0x24,0x12,0x22,0x14,0x49,0x52,0x4a,0xa2,
0xa4,0xa4,0x90,0x24,0x89,0x08,0x25,0x4a,0x52,0x52,0x92,0x88,0x44,0x92,0x24,
0x52,0x92,0x24,0x49,0x44,0x92,0x24,0x49
};
