#define im_width 32
#define im_height 32
static char im_bits[] = {
0x00,0xa9,0x12,0x82,0x24,0x00,0x42,0x14,0x80,0x22,0x08,0x00,0x14,0x84,0x90,
0x24,0x40,0x10,0x02,0x80,0x09,0x42,0x50,0x15,0xa0,0x10,0x05,0x00,0x04,0x02,
0x40,0x24,0x10,0x28,0x09,0x81,0x42,0x01,0x20,0x14,0x08,0xa4,0x82,0x00,0x90,
0x00,0x14,0x24,0x02,0x8a,0x40,0x10,0x48,0x10,0x84,0x22,0x00,0x41,0x10,0x80,
0x2a,0x88,0x42,0x12,0x80,0x02,0x08,0x00,0x11,0x90,0x90,0x2a,0x84,0x04,0x02,
0x80,0x10,0x50,0x24,0x11,0x44,0x01,0x00,0x04,0x00,0x4a,0xa9,0x20,0x0a,0x00,
0x00,0x12,0x50,0x49,0x4a,0x20,0x00,0x20,0x00,0x09,0x25,0x85,0x24,0x20,0x00,
0x20,0x90,0x82,0x94,0x44,0x02,0x10,0x00,0x00,0x48,0x02,0xa4,0x4a,0x01,0x28,
0x00,0x00,0x54,0x81,0x29,0x92,0x00,0x12
};
