#define im_width 32
#define im_height 32
static char im_bits[] = {
0x08,0x11,0x00,0x00,0x00,0x80,0x08,0x00,0x20,0x00,0x80,0x10,0x00,0x11,0x00,
0x00,0x04,0x80,0x08,0x01,0x00,0x00,0x00,0x10,0x20,0x02,0x20,0x00,0x00,0x10,
0x01,0x01,0x04,0x00,0x00,0x20,0x00,0x01,0x04,0x02,0x10,0x10,0x00,0x00,0x00,
0x40,0x20,0x00,0x40,0x00,0x04,0x22,0x02,0x02,0x00,0x00,0x00,0x20,0x20,0x00,
0x20,0x00,0x01,0x02,0x04,0x02,0x00,0x10,0x00,0x00,0x44,0x00,0x20,0x24,0x00,
0x00,0x00,0x00,0x00,0x11,0x04,0x80,0x08,0x00,0x20,0x02,0x00,0x00,0x00,0x10,
0x20,0x02,0x00,0x00,0x02,0x10,0x44,0x40,0x00,0x00,0x00,0x02,0x10,0x01,0x00,
0x00,0x00,0x10,0x20,0x08,0x01,0x00,0x04,0x00,0x88,0x00,0x80,0x20,0x00,0x10,
0x00,0x00,0x00,0x01,0x08,0x02,0x11,0x00
};
