#define im_width 32
#define im_height 32
static char im_bits[] = {
0x08,0x51,0x45,0x01,0x22,0x05,0x10,0x54,0x88,0x50,0x45,0x01,0x12,0x45,0x10,
0x54,0x48,0x88,0x4a,0x01,0x09,0x11,0x10,0x55,0x50,0xa4,0x42,0x00,0x82,0x04,
0x14,0x55,0x14,0x51,0xa1,0x00,0x21,0x12,0x04,0x55,0x94,0x48,0x29,0x08,0x10,
0x09,0x41,0x51,0x42,0x50,0x14,0x02,0x94,0x02,0x41,0x54,0x42,0x54,0x2a,0x01,
0x08,0x41,0x40,0x54,0x52,0x14,0x15,0x01,0x02,0x41,0x20,0x55,0xa8,0x94,0x8a,
0x00,0x82,0x10,0x10,0x55,0x14,0xa2,0x22,0x00,0xa0,0x04,0x44,0x55,0x0a,0xa9,
0x12,0x08,0x20,0x01,0x42,0x51,0x0a,0xaa,0x28,0x02,0xa8,0x00,0x42,0x54,0x02,
0x55,0x89,0x00,0x28,0x00,0x10,0x55,0x42,0x55,0x25,0x00,0x14,0x04,0x44,0x55,
0x42,0x51,0x11,0x02,0x14,0x12,0x52,0x54
};
