#define im_width 32
#define im_height 32
static char im_bits[] = {
0x00,0x01,0x09,0x08,0x11,0x10,0x20,0x01,0x00,0x41,0x02,0x10,0x24,0x04,0x24,
0x22,0x00,0x41,0x80,0x00,0x12,0x08,0x08,0x24,0x40,0x40,0x02,0x00,0x04,0x09,
0x50,0x22,0x40,0x40,0x00,0x08,0x08,0x04,0x85,0x00,0x82,0x10,0x10,0x48,0x10,
0x40,0x00,0x01,0x80,0x04,0x49,0x08,0x12,0x10,0x00,0x20,0x80,0x40,0x92,0x08,
0x10,0x04,0x00,0x01,0x82,0x20,0x22,0x48,0x10,0x04,0x04,0x00,0x84,0x20,0x20,
0x09,0x00,0x02,0x01,0x20,0x08,0x48,0x24,0x01,0xa1,0x00,0x00,0x24,0x08,0x44,
0x24,0x00,0x00,0x88,0x80,0x24,0x48,0x00,0x04,0x00,0x01,0x22,0x48,0x22,0x48,
0x88,0x00,0x08,0x80,0x00,0x90,0x00,0x12,0x88,0x02,0x48,0x00,0x11,0x10,0x01,
0x24,0x00,0x42,0x08,0x00,0x42,0x00,0x20
};
