#define im_width 32
#define im_height 32
static char im_bits[] = {
0xa8,0x0a,0x15,0x80,0x01,0x20,0xa0,0x14,0x94,0x84,0x04,0x42,0x80,0x90,0x50,
0x08,0x2a,0x02,0x02,0x21,0x40,0x54,0x28,0x24,0x02,0x01,0x81,0x80,0x28,0x28,
0x15,0x15,0x82,0x02,0x40,0x40,0x10,0x48,0x09,0x09,0x42,0x21,0x24,0x24,0x0a,
0x84,0x80,0x20,0xa0,0x10,0x2a,0x82,0x04,0x42,0x40,0x14,0x52,0x14,0x09,0x41,
0x80,0x20,0x21,0x08,0x0a,0x02,0x84,0x22,0x50,0xa8,0x10,0x24,0x82,0x02,0x4a,
0x80,0x10,0x48,0x00,0x15,0x42,0x22,0x55,0x40,0x4a,0x04,0x00,0x09,0x00,0x51,
0x92,0x20,0x29,0x02,0x02,0x25,0x00,0xa8,0x28,0x80,0x55,0x01,0x81,0x14,0x00,
0x24,0x14,0x42,0x92,0x84,0x40,0x08,0x08,0x10,0x0a,0x21,0xa1,0x42,0x20,0x24,
0x04,0x08,0x45,0x81,0x50,0x29,0x08,0x14
};
