#define im_width 32
#define im_height 32
static char im_bits[] = {
0x92,0x42,0x92,0x48,0x44,0x94,0x24,0x49,0x92,0x22,0x91,0x84,0x24,0x24,0x25,
0x29,0x92,0x92,0x88,0x44,0x52,0x24,0x92,0x14,0x84,0x92,0x24,0xa2,0x28,0x90,
0xa4,0x24,0xa2,0x4a,0x12,0x92,0x8a,0x48,0xa2,0x24,0x50,0x22,0x09,0x91,0x45,
0x0a,0x29,0x25,0x88,0x50,0x24,0x88,0x29,0x45,0x49,0x29,0x42,0x12,0x22,0x41,
0x4a,0x52,0x4a,0x4a,0x24,0x89,0x90,0x24,0x24,0x92,0x12,0x49,0x92,0x48,0xa4,
0x24,0x22,0x49,0x89,0x44,0x94,0x24,0x12,0x29,0x21,0x89,0x24,0x41,0x94,0x24,
0x49,0x2a,0x82,0x24,0x49,0x42,0x54,0x48,0x24,0x29,0x44,0x89,0x44,0x44,0x12,
0x51,0x92,0x12,0x24,0x85,0x24,0x52,0x92,0x28,0x92,0x44,0x24,0x49,0x92,0x14,
0x92,0x24,0x21,0xa2,0x92,0x24,0xa5,0x08
};
