#define im_width 32
#define im_height 32
static char im_bits[] = {
0x22,0x42,0x89,0x20,0x44,0x08,0x11,0x45,0x10,0x25,0x44,0x10,0x22,0x80,0x08,
0x22,0x88,0x2a,0xa0,0x88,0x11,0x80,0x0a,0x11,0x44,0x15,0x20,0x44,0x08,0x40,
0x85,0x08,0xa0,0x14,0x28,0x22,0x85,0x20,0x41,0x44,0x10,0x82,0x04,0x11,0x45,
0x14,0x28,0x20,0x10,0xa1,0x84,0x82,0x22,0x84,0x20,0x14,0x88,0x10,0x8a,0x40,
0x11,0x45,0x10,0x0a,0x44,0x10,0x45,0x51,0x48,0x22,0x08,0x02,0x02,0x89,0x20,
0x28,0x28,0x10,0x45,0x41,0x82,0x42,0x08,0x12,0x10,0x08,0x51,0x22,0x4a,0x51,
0x04,0x88,0x00,0x82,0x48,0x11,0x2a,0x09,0x22,0x44,0x20,0x50,0x84,0x08,0x82,
0x02,0x11,0x22,0x28,0x28,0x42,0x44,0x82,0x82,0x08,0x11,0x12,0x12,0x28,0x20,
0x48,0x48,0x41,0x85,0x01,0x01,0x0a,0x10
};
