#define im_width 32
#define im_height 32
static char im_bits[] = {
0x10,0x50,0x00,0x00,0xa2,0x02,0x55,0x55,0x04,0xa9,0x20,0x00,0x28,0x02,0x45,
0x55,0x42,0x54,0x08,0x02,0x94,0x80,0x52,0x54,0x42,0x2a,0x88,0x00,0x88,0x40,
0x11,0x55,0x12,0x15,0x22,0x00,0x22,0x40,0x44,0x55,0x48,0x95,0x28,0x08,0x09,
0x80,0x42,0x51,0x50,0x15,0x08,0x02,0x05,0x50,0xa9,0x54,0x50,0x05,0x02,0x02,
0x45,0x50,0x54,0x54,0x88,0x8a,0x80,0x00,0x11,0x90,0x2a,0x55,0xa4,0x02,0x80,
0x00,0x04,0x54,0x15,0x55,0xa8,0x00,0x48,0x00,0x02,0x55,0x09,0x55,0xa8,0x20,
0xa2,0x00,0x02,0x45,0x08,0x55,0x54,0x88,0x22,0x08,0x01,0x29,0x48,0x51,0x54,
0x84,0x22,0x02,0x81,0x28,0x44,0x54,0x54,0x42,0x11,0x01,0x42,0x08,0x44,0x54,
0x08,0xa5,0x92,0x02,0x52,0x08,0x10,0x54
};
