#define im_width 32
#define im_height 32
static char im_bits[] = {
0x44,0x44,0x08,0x91,0x14,0x91,0x52,0x12,0xa2,0x24,0x04,0xa1,0x84,0xa4,0x54,
0x0a,0x12,0x11,0x21,0x51,0x52,0x44,0x24,0x04,0x88,0x92,0x92,0x52,0x12,0x12,
0x42,0x48,0x48,0x48,0x94,0x22,0x49,0x49,0x11,0x44,0x24,0x22,0xa2,0x12,0x84,
0x88,0x24,0x52,0x52,0x52,0x92,0x08,0x88,0x04,0x12,0x51,0x22,0x52,0x48,0x82,
0x4a,0x92,0x42,0x2a,0x90,0x48,0x14,0x91,0x12,0x11,0x51,0x12,0xa4,0xa4,0x04,
0xa1,0x84,0x04,0x51,0x0a,0x12,0x29,0x0a,0x51,0x24,0xa1,0x50,0x04,0x12,0x0a,
0x85,0x52,0xa2,0x50,0x28,0x48,0x08,0x85,0x42,0x25,0x52,0x28,0x4a,0x40,0x84,
0x42,0x88,0x0a,0x29,0x4a,0x29,0x52,0x44,0x24,0x42,0x84,0x91,0x88,0x48,0x29,
0x24,0x51,0x12,0x42,0x24,0x45,0xa2,0x14
};
