#define im_width 32
#define im_height 32
static char im_bits[] = {
0x22,0x25,0xa1,0x44,0x44,0x40,0x0a,0x11,0x28,0x15,0x51,0x4a,0x42,0x22,0x42,
0x48,0x14,0x49,0x14,0x11,0x41,0x48,0x21,0x45,0x14,0x05,0x4a,0x28,0x51,0xa8,
0x08,0x41,0x84,0x42,0xa2,0x14,0x29,0x4a,0x24,0x42,0x84,0x10,0x89,0x14,0x28,
0x22,0x91,0x50,0x42,0x49,0x24,0x05,0x14,0x89,0x24,0x50,0x42,0x24,0x41,0x85,
0x14,0x21,0x14,0x14,0xa0,0x44,0xa1,0xa2,0x8a,0x14,0x25,0x08,0x24,0x22,0x44,
0xa5,0x44,0x44,0x11,0x08,0x88,0x28,0x4a,0x51,0x92,0x82,0x10,0x05,0x48,0x54,
0x22,0xa8,0x09,0x01,0x4a,0x09,0xa4,0x54,0x21,0xa2,0x08,0x11,0xa4,0x14,0x52,
0xa2,0x12,0x42,0x02,0x0a,0x42,0x14,0x54,0x50,0x94,0xa0,0x41,0x45,0x91,0x0a,
0x14,0x12,0x42,0x50,0xa2,0x50,0x14,0x05
};
