#define im_width 32
#define im_height 32
static char im_bits[] = {
0x04,0x00,0x00,0x00,0x48,0x24,0x25,0x29,0x00,0x01,0x00,0x00,0x12,0x48,0x92,
0x24,0x40,0x02,0x00,0x00,0x09,0x90,0xa4,0x24,0x20,0x01,0x00,0x00,0x02,0x48,
0x92,0x24,0x48,0x02,0x00,0x00,0x00,0x90,0x24,0x29,0x92,0x04,0x02,0x00,0x00,
0x48,0x48,0x25,0x92,0x00,0x00,0x00,0x00,0x24,0x25,0x24,0x52,0x00,0x80,0x00,
0x00,0x49,0x12,0x24,0x12,0x00,0x40,0x00,0x40,0x2a,0x09,0x29,0x12,0x00,0x40,
0x00,0x20,0x21,0x89,0x24,0x04,0x04,0x00,0x00,0x80,0x48,0x92,0x24,0x14,0x00,
0x00,0x00,0x80,0xa4,0x24,0x29,0x24,0x00,0x00,0x00,0x80,0x24,0x49,0x22,0x04,
0x00,0x04,0x08,0x50,0x92,0x48,0x21,0x02,0x00,0x00,0x00,0x44,0x4a,0x92,0x24,
0x10,0x00,0x00,0x00,0x41,0x92,0x24,0x29
};
