#define im_width 32
#define im_height 32
static char im_bits[] = {
0x80,0x00,0x22,0x00,0x12,0x54,0x04,0x29,0x40,0x01,0x50,0x80,0x0a,0x90,0x02,
0x12,0x40,0x02,0x90,0x00,0x08,0x50,0x02,0x2a,0xa2,0x02,0x28,0x80,0x00,0x48,
0x41,0x11,0x4a,0x02,0x04,0x04,0x00,0x90,0x90,0x20,0x94,0x04,0x02,0x12,0x10,
0x48,0x50,0x20,0x40,0x01,0x05,0x09,0x0a,0x28,0x20,0x20,0x20,0x81,0x84,0x82,
0x02,0x08,0x10,0x10,0xa8,0x22,0x41,0x02,0x00,0x00,0x0a,0x28,0x22,0x55,0xa0,
0x80,0x04,0x00,0x02,0x12,0x90,0x48,0x48,0x00,0x02,0x01,0x81,0x2a,0x28,0x14,
0x24,0x80,0x80,0xa0,0x00,0x11,0x22,0x04,0x4a,0x04,0x84,0x40,0x00,0x20,0x10,
0x0a,0x49,0x89,0x21,0x20,0x08,0x00,0x84,0x84,0x20,0x15,0x10,0x10,0x05,0x20,
0x44,0x01,0x50,0x82,0x00,0x24,0x01,0x10
};
