#define im_width 32
#define im_height 32
static char im_bits[] = {
0x54,0x54,0xa0,0x42,0x80,0x00,0x05,0x0a,0x0a,0x55,0x28,0x50,0x20,0x00,0x81,
0x02,0x8a,0x4a,0x14,0x28,0x10,0x88,0x40,0x41,0xa2,0x20,0x2a,0x04,0x04,0x45,
0x80,0x28,0x10,0x10,0x25,0x42,0xa2,0x22,0x44,0x08,0x08,0x88,0x10,0x21,0x49,
0x11,0x22,0x45,0x20,0x44,0x08,0x08,0x85,0x48,0x41,0x21,0x10,0x02,0x0a,0x94,
0x42,0x50,0x50,0x01,0x28,0x05,0x05,0x94,0x02,0x20,0xa0,0x10,0xa8,0x8a,0x0a,
0x42,0x01,0x10,0x90,0x08,0x54,0x49,0x41,0x22,0x00,0x01,0x0a,0x44,0x4a,0x54,
0x50,0x10,0x80,0x80,0x82,0x22,0x0a,0x0a,0x48,0x88,0x50,0x50,0x09,0x11,0x82,
0x02,0x20,0x44,0x14,0xa8,0x8a,0x08,0x40,0x01,0x20,0x22,0x0a,0x4a,0x45,0x44,
0x50,0x20,0x10,0x11,0x02,0x45,0x22,0x20
};
