#define im_width 32
#define im_height 32
static char im_bits[] = {
0x0a,0x01,0x02,0x08,0x20,0x54,0x54,0x51,0x4a,0x81,0x00,0x02,0x08,0x14,0x55,
0x54,0xa2,0x40,0x80,0x00,0x04,0x15,0x15,0x55,0x90,0x40,0x40,0x00,0x12,0x0a,
0x15,0x29,0x40,0x50,0x40,0x84,0x95,0x42,0x8a,0x10,0x40,0x08,0x21,0x22,0x0a,
0x22,0x44,0x44,0x50,0x89,0x88,0x08,0x02,0x20,0x11,0x51,0xa8,0x8a,0x44,0x04,
0x02,0x10,0x88,0x48,0xa8,0x42,0x11,0x21,0x02,0x14,0x22,0x04,0xa8,0x40,0x44,
0xa9,0x02,0x95,0x08,0x01,0x28,0x40,0x22,0x94,0x82,0x0a,0x88,0x10,0x28,0x50,
0x21,0x41,0x82,0x02,0x0a,0x15,0x28,0x54,0x20,0x40,0x82,0x80,0x4a,0x15,0x28,
0x4a,0x20,0x40,0x42,0x08,0x05,0x15,0x88,0x20,0x28,0x40,0x11,0x45,0x41,0x15,
0x44,0x08,0x0a,0x40,0x10,0x51,0x50,0x15
};
