#define im_width 32
#define im_height 32
static char im_bits[] = {
0x00,0x00,0x84,0x20,0x40,0x22,0x08,0x00,0x12,0x00,0x00,0x01,0x00,0x88,0x10,
0x24,0x20,0x01,0x00,0x00,0x02,0x20,0x92,0x04,0x40,0x04,0x00,0x10,0x08,0x80,
0x00,0x00,0x80,0x08,0x92,0x10,0x02,0x10,0x00,0x02,0x88,0x00,0x04,0x20,0x00,
0x90,0x90,0x00,0x88,0x00,0x00,0x42,0x00,0x02,0x02,0x04,0x08,0x48,0x48,0x00,
0x90,0x00,0x00,0x10,0x00,0x10,0x81,0x00,0x02,0x01,0x08,0x22,0x10,0x20,0x00,
0x00,0x20,0x04,0x91,0x08,0x00,0x41,0x00,0x40,0x04,0x00,0x12,0x02,0x20,0x04,
0x80,0x00,0x40,0x40,0x00,0x10,0x02,0x04,0x09,0x01,0x40,0x08,0x10,0x22,0x04,
0x00,0x00,0x00,0x80,0x48,0x42,0x08,0x08,0x00,0x10,0x42,0x00,0x41,0x00,0x00,
0x24,0x08,0x42,0x08,0x00,0x00,0x00,0x00
};
