#define im_width 32
#define im_height 32
static char im_bits[] = {
0x0a,0x11,0xa5,0x08,0x50,0x44,0x10,0x51,0x82,0x92,0x4a,0x82,0x2a,0x22,0x90,
0x14,0x90,0x88,0x42,0xa2,0x05,0x29,0x4a,0x08,0x28,0x42,0x88,0x52,0xa2,0x94,
0x22,0x04,0x04,0x42,0x94,0x52,0x54,0x14,0x21,0x44,0x90,0xa0,0x44,0x11,0x92,
0x0a,0x14,0x44,0x44,0x50,0xa1,0x12,0x88,0x12,0x0a,0x52,0x12,0x49,0x51,0x04,
0x22,0x11,0x44,0x51,0x14,0xa2,0x12,0x0a,0x40,0x0a,0xa2,0x50,0x2a,0x50,0x04,
0x85,0x42,0x85,0x54,0x14,0x14,0x52,0x20,0xa1,0x50,0x84,0x0a,0x0a,0x42,0x29,
0xa2,0x50,0x14,0x41,0x14,0x05,0x42,0x94,0x20,0xa8,0x14,0x91,0x4a,0x09,0xa2,
0x44,0x90,0xa4,0x08,0x89,0x92,0x08,0x22,0x12,0x42,0x52,0x4a,0x52,0x14,0x02,
0x90,0x40,0xa1,0xa8,0x12,0x15,0x0a,0x12
};
