#define im_width 32
#define im_height 32
static char im_bits[] = {
0x14,0x45,0x08,0x12,0x00,0x08,0x51,0x42,0x52,0x20,0x04,0x08,0x02,0x85,0x48,
0x21,0x48,0x10,0x02,0x84,0x08,0x42,0x90,0x14,0xa2,0x28,0x45,0x40,0x04,0x01,
0x08,0x09,0x10,0x24,0x21,0x24,0xa2,0x20,0x84,0x20,0x08,0x8a,0x10,0x82,0x41,
0x00,0x42,0x14,0x14,0xa9,0x08,0x41,0x00,0x01,0x21,0x08,0x52,0x24,0x84,0x22,
0x02,0x84,0x10,0x20,0x48,0x10,0x4a,0x82,0x88,0x42,0x40,0x14,0x22,0x08,0x09,
0x41,0x00,0x21,0x21,0x08,0x2a,0x04,0x84,0x22,0x80,0xa8,0x10,0x20,0x12,0x02,
0x42,0x8a,0x42,0x48,0x48,0x00,0x08,0x21,0x01,0x29,0x28,0x04,0x2a,0x01,0x82,
0x50,0x00,0x54,0x10,0x82,0xa4,0x00,0x42,0x08,0x02,0x92,0x14,0x51,0x48,0x02,
0x40,0x04,0x21,0x28,0x89,0x20,0x04,0x21
};
