#define im_width 32
#define im_height 32
static char im_bits[] = {
0x4a,0x02,0xa4,0x02,0x00,0xa8,0x00,0x28,0x54,0x02,0x4a,0x82,0x00,0x48,0x00,
0x10,0x52,0x02,0xa9,0x04,0x00,0x24,0x81,0x20,0x52,0x10,0x04,0x8a,0x40,0x82,
0x50,0x10,0x02,0x08,0x02,0x01,0x48,0x51,0x24,0x24,0x22,0x00,0x81,0x90,0x04,
0x25,0x14,0x02,0x10,0x80,0x40,0x48,0xa2,0x14,0x09,0x01,0x00,0x02,0x20,0x14,
0x4a,0x20,0x85,0x20,0x00,0x85,0x10,0x82,0x29,0x10,0x42,0x14,0x80,0x84,0x08,
0x40,0x12,0x10,0x48,0x09,0x48,0x41,0x01,0x20,0x01,0x0a,0x28,0x05,0x48,0x20,
0x81,0x50,0x81,0x04,0x12,0x02,0x14,0x50,0x40,0x48,0x80,0x02,0x0a,0x01,0x12,
0x48,0x20,0x94,0x20,0x81,0x84,0x00,0x02,0x14,0x10,0x12,0xa8,0x90,0x42,0x20,
0x02,0x02,0x08,0x85,0x48,0x24,0x21,0x10
};
