#define im_width 32
#define im_height 32
static char im_bits[] = {
0x20,0x42,0x20,0x20,0x02,0x00,0x44,0x02,0x80,0x44,0x00,0x20,0x12,0x08,0x41,
0x04,0x00,0x00,0x04,0x20,0x20,0x41,0x10,0x01,0x02,0x04,0x04,0x44,0x48,0x90,
0x40,0x00,0x00,0x02,0x08,0x12,0x22,0x10,0x41,0x00,0x00,0x02,0x08,0x24,0x48,
0x40,0x80,0x00,0x00,0x12,0x11,0x20,0x12,0x00,0x80,0x04,0x40,0x44,0x02,0x40,
0x00,0x00,0x90,0x08,0x92,0x44,0x04,0x00,0x00,0x80,0x00,0x22,0x44,0x04,0x28,
0x08,0x00,0x10,0x81,0x00,0x44,0x04,0x20,0x10,0x88,0x40,0x04,0x22,0x00,0x08,
0x40,0x00,0x81,0x00,0x09,0x04,0x24,0x24,0x40,0x10,0x00,0x00,0x81,0x20,0x88,
0x08,0x04,0x02,0x01,0x41,0x10,0x00,0x08,0x08,0x40,0x14,0x20,0x00,0x05,0x20,
0x80,0x28,0x40,0x00,0x09,0x01,0x08,0x09
};
