#define im_width 32
#define im_height 32
static char im_bits[] = {
0xa0,0x48,0x88,0x00,0x0a,0x41,0x11,0x55,0x20,0x0a,0x22,0x00,0xa5,0xa8,0x44,
0x55,0x08,0x02,0x12,0x02,0xa1,0xa8,0x50,0x54,0x14,0x02,0x85,0x00,0x41,0x2a,
0x10,0x55,0x14,0x41,0x25,0x08,0x21,0x14,0x44,0x51,0x44,0xa1,0x88,0x04,0x14,
0x04,0x91,0x50,0xa0,0x52,0x22,0x0a,0x05,0x44,0x84,0x50,0xa8,0x10,0x29,0x02,
0x82,0x22,0x81,0x54,0x28,0x84,0x54,0x00,0x82,0x14,0x01,0x55,0x54,0x20,0xaa,
0x00,0x01,0x45,0x00,0x55,0x54,0x28,0x55,0x00,0x81,0x02,0x01,0x55,0x14,0x54,
0x54,0x08,0xa1,0x00,0x41,0x51,0x14,0x55,0x0a,0x02,0x41,0x40,0x50,0x54,0x14,
0x15,0x85,0x00,0x21,0x41,0x10,0x55,0x14,0x2a,0xa5,0x00,0x41,0x40,0x04,0x55,
0x94,0x0a,0x51,0x00,0x21,0x50,0x04,0x55
};
