#define im_width 32
#define im_height 32
static char im_bits[] = {
0x80,0x00,0x88,0x00,0x04,0x90,0x10,0x04,0x10,0x01,0x80,0x10,0x01,0x22,0x02,
0x20,0x10,0x00,0x88,0x00,0x82,0x88,0x10,0x09,0x10,0x22,0x00,0x20,0x00,0x00,
0x22,0x02,0x12,0x44,0x00,0x20,0x80,0x00,0x88,0x04,0x08,0x44,0x02,0x20,0x41,
0x08,0x20,0x01,0x08,0x40,0x04,0x44,0x40,0x02,0x20,0x00,0x04,0x48,0x84,0x08,
0x40,0x80,0x00,0x20,0x04,0x01,0x84,0x00,0x10,0x24,0x10,0x0a,0x00,0x80,0x00,
0x20,0x24,0x09,0x92,0x00,0x00,0x00,0x00,0x22,0x44,0x48,0x22,0x00,0x10,0x01,
0x00,0x09,0x00,0x20,0x12,0x20,0x42,0x02,0x80,0x00,0x08,0x88,0x08,0x12,0x80,
0x20,0x00,0x40,0x08,0x82,0xa4,0x04,0x00,0x00,0x00,0x00,0x49,0x92,0x08,0x24,
0x00,0x00,0x20,0x01,0x88,0x10,0x02,0x08
};
