#define im_width 32
#define im_height 32
static char im_bits[] = {
0x08,0x00,0x00,0x00,0x41,0x92,0x24,0x25,0x08,0x00,0x00,0x00,0x90,0xa4,0x54,
0x24,0x02,0x00,0x00,0x01,0x20,0x25,0x11,0x24,0x04,0x00,0x84,0x00,0x48,0x92,
0x10,0x24,0x00,0x00,0x80,0x00,0x49,0x52,0x12,0x24,0x00,0x00,0x40,0x80,0x92,
0x24,0x09,0x15,0x00,0x00,0x40,0x00,0x52,0x49,0x09,0x20,0x00,0x00,0x20,0x05,
0x24,0x92,0x04,0x20,0x80,0x00,0x90,0x04,0x09,0x24,0x01,0x20,0x20,0x01,0x24,
0x09,0x04,0x90,0x00,0x20,0x90,0x02,0x52,0x02,0x02,0x50,0x00,0x24,0x10,0x01,
0x49,0x00,0x22,0x12,0x80,0x24,0x00,0x40,0x12,0x00,0x48,0x09,0x00,0x29,0x02,
0x20,0x49,0x00,0x20,0x02,0x00,0x22,0x82,0x48,0x92,0x08,0x14,0x00,0x00,0x20,
0x80,0x94,0x92,0x00,0x11,0x00,0x00,0x25
};
