#define im_width 32
#define im_height 32
static char im_bits[] = {
0xa8,0x0a,0x08,0x00,0x01,0x50,0x51,0x55,0x54,0x05,0x02,0x00,0x01,0x50,0x54,
0x55,0x54,0x85,0x00,0x00,0x01,0x10,0x55,0x55,0x54,0x25,0x00,0x00,0x01,0x44,
0x55,0x55,0x54,0x11,0x00,0x00,0x01,0x42,0x55,0x55,0x54,0x28,0x00,0x00,0x81,
0x42,0x55,0x55,0x14,0x08,0x00,0x00,0x41,0x51,0x55,0x55,0x14,0x02,0x00,0x00,
0x50,0x54,0x55,0x55,0x82,0x00,0x08,0x00,0x14,0x55,0x51,0x55,0x22,0x00,0x02,
0x00,0x44,0x55,0x54,0x55,0x10,0x20,0x01,0x00,0x45,0x25,0x54,0x55,0x10,0x80,
0x02,0x00,0xa2,0x2a,0x54,0x55,0x04,0x80,0x00,0x00,0xa8,0x2a,0x55,0x55,0x02,
0x80,0x00,0x00,0x54,0x15,0x54,0x55,0x00,0xa0,0x02,0x00,0xaa,0x0a,0x54,0x55,
0x00,0xa0,0x00,0x00,0xaa,0x0a,0x55,0x55
};
