#define im_width 32
#define im_height 32
static char im_bits[] = {
0x14,0x85,0xa2,0xa8,0x41,0x28,0x08,0x12,0x94,0x42,0xa5,0x48,0x24,0x4a,0x88,
0x12,0x92,0x90,0x12,0x48,0x82,0x12,0x52,0x49,0x14,0xa4,0x88,0x24,0xa1,0x04,
0x91,0x44,0x94,0xa8,0x24,0x08,0x91,0x82,0x84,0x52,0x44,0x14,0x29,0x84,0x89,
0x24,0x42,0x29,0x24,0x92,0x14,0x82,0xa4,0x90,0x50,0x2a,0x02,0x45,0x8a,0x90,
0x28,0x91,0x20,0x12,0x92,0x44,0x4a,0x49,0x12,0x49,0x12,0x11,0x44,0x24,0x49,
0xa4,0x48,0x09,0x11,0x09,0x12,0x24,0xa2,0xa4,0x44,0x49,0x8a,0x08,0x12,0x24,
0x21,0x52,0x52,0x21,0x8a,0x04,0x88,0x94,0x50,0x52,0x12,0x11,0x45,0x44,0x48,
0x44,0x88,0x28,0x49,0x91,0x92,0x42,0x04,0x4a,0x24,0x14,0xa8,0x88,0x44,0x41,
0x22,0x51,0x08,0x2a,0x0a,0x45,0xa9,0x44
};
