#define im_width 32
#define im_height 32
static char im_bits[] = {
0x40,0x00,0x04,0x00,0x01,0x48,0x20,0x01,0x88,0x00,0x00,0x08,0x00,0x00,0x04,
0x10,0x00,0x49,0x20,0x00,0x11,0x00,0x00,0x01,0x00,0x80,0x40,0x08,0x10,0x09,
0x04,0x20,0x04,0x00,0x01,0x00,0x20,0x10,0x40,0x02,0x00,0x01,0x04,0x10,0x00,
0x40,0x00,0x00,0x04,0x02,0x48,0x00,0x20,0x84,0x80,0x24,0x00,0x00,0x00,0x00,
0x04,0x10,0x04,0x00,0x20,0x82,0x20,0x09,0x00,0x00,0x00,0x00,0x44,0x10,0x02,
0x10,0x00,0x01,0x10,0x01,0x00,0x20,0x00,0x20,0x08,0x02,0x11,0x02,0x40,0x00,
0x00,0x00,0x01,0x20,0x40,0x10,0x08,0x02,0x11,0x02,0x00,0x04,0x00,0x00,0x10,
0x20,0x02,0x08,0x40,0x00,0x90,0x20,0x00,0x04,0x00,0x00,0x09,0x40,0x02,0x02,
0x40,0x10,0x10,0x10,0x00,0x01,0x40,0x00
};
