#define im_width 32
#define im_height 32
static char im_bits[] = {
0x00,0x00,0x20,0x12,0x08,0x11,0x01,0x20,0x20,0x00,0x44,0x04,0x01,0x44,0x00,
0x00,0x48,0x00,0x44,0x48,0x80,0x48,0x08,0x01,0x00,0x00,0x00,0x00,0x12,0x12,
0x41,0x24,0x40,0x00,0x04,0x00,0x04,0x40,0x10,0x09,0x40,0x12,0x40,0x20,0x08,
0x80,0x04,0x00,0x40,0x04,0x80,0x04,0x02,0x10,0x11,0x20,0x88,0x00,0x80,0x08,
0x00,0x44,0x04,0x00,0x88,0x00,0x11,0x11,0x10,0x10,0x00,0x20,0x00,0x01,0x22,
0x01,0x22,0x44,0x00,0x04,0x00,0x10,0x04,0x10,0x22,0x01,0x90,0x20,0x00,0x20,
0x01,0x02,0x44,0x04,0x22,0x00,0x00,0x00,0x00,0x24,0x88,0x48,0x88,0x00,0x00,
0x02,0x21,0x08,0x22,0x08,0x00,0x20,0x08,0x40,0x42,0x02,0x00,0x01,0x08,0x00,
0x10,0x04,0x40,0x14,0x21,0x48,0x02,0x20
};
