#define im_width 32
#define im_height 32
static char im_bits[] = {
0x20,0x22,0x49,0x81,0x04,0x00,0x00,0x12,0x50,0x52,0x0a,0x00,0x02,0x00,0xa0,
0x24,0x90,0x92,0x04,0x80,0x02,0x00,0x20,0x15,0x48,0x52,0x0a,0x00,0x00,0x00,
0x40,0x22,0x52,0x92,0x08,0x08,0x00,0x00,0x21,0x21,0x92,0x12,0x04,0x08,0x00,
0x80,0x20,0x21,0x92,0x2a,0x04,0x08,0x00,0x80,0x20,0x21,0x4a,0x10,0x0a,0x00,
0x00,0x22,0x20,0x25,0x94,0x80,0x08,0x80,0x00,0x09,0x81,0x14,0x24,0x20,0x14,
0x00,0x80,0x04,0x80,0x24,0x12,0x50,0x12,0x80,0x40,0x02,0x90,0x12,0x12,0x90,
0x04,0x00,0x40,0x02,0x90,0x24,0x02,0x28,0x01,0x80,0x48,0x01,0x24,0x15,0x04,
0x48,0x00,0x00,0x10,0x01,0x49,0x22,0x44,0x24,0x04,0x08,0x00,0x80,0x20,0x21,
0x24,0x25,0x04,0x08,0x00,0x00,0x24,0x21
};
