#define im_width 32
#define im_height 32
static char im_bits[] = {
0x92,0x44,0x4a,0x49,0x92,0x94,0x22,0x52,0x24,0x21,0x94,0x84,0x24,0xa5,0x24,
0x29,0x92,0x94,0x48,0x92,0x24,0x91,0x92,0x24,0x92,0x24,0x4a,0x92,0x92,0xa4,
0x90,0x24,0x44,0x12,0x25,0x49,0x49,0x52,0x24,0x49,0x24,0x89,0x92,0x24,0x24,
0x22,0x92,0x48,0x92,0x94,0x44,0x22,0x92,0x24,0x49,0x4a,0x24,0x49,0x92,0x28,
0x24,0x49,0x92,0x42,0x92,0x24,0x49,0x94,0x24,0x49,0x92,0x24,0x92,0x24,0x49,
0x92,0x92,0x24,0x92,0x24,0x44,0x92,0x24,0x91,0x49,0x92,0x24,0x25,0x24,0x49,
0x92,0x48,0x24,0x49,0x22,0x49,0x92,0x24,0x49,0x12,0x24,0x24,0x49,0x52,0x92,
0x92,0x24,0x89,0x44,0x92,0x24,0x29,0x92,0x48,0x92,0x44,0x24,0x49,0x92,0x48,
0x92,0x24,0x49,0x12,0x92,0x24,0x49,0x52
};
