#define im_width 32
#define im_height 32
static char im_bits[] = {
0x00,0x10,0x84,0x04,0x95,0x82,0x10,0x20,0x40,0x28,0x42,0x85,0x08,0x40,0x08,
0x10,0xa2,0x02,0x21,0x09,0x00,0x28,0x04,0x20,0x4a,0x82,0x50,0x89,0x00,0x10,
0x02,0x10,0xaa,0x44,0x48,0x01,0x80,0x00,0x01,0x24,0x04,0x2a,0x94,0x90,0x50,
0x80,0x00,0x02,0x02,0x49,0x52,0x48,0x24,0x00,0x00,0x01,0x80,0x4a,0x25,0x14,
0x14,0x00,0x84,0x20,0x40,0x4a,0x10,0x82,0x09,0x08,0x42,0x14,0xa0,0xa0,0x08,
0x40,0x05,0x04,0x50,0x09,0x90,0x90,0x02,0x20,0x11,0x02,0x24,0x05,0x44,0x28,
0x00,0x50,0x00,0x81,0x54,0x02,0x2a,0x24,0x00,0x91,0x80,0x04,0x25,0x02,0x24,
0x50,0x00,0x28,0x40,0x02,0x49,0x01,0x12,0x48,0x20,0x24,0x20,0x01,0x85,0x20,
0x82,0x14,0x10,0x82,0x12,0x40,0x22,0x14
};
