#define im_width 32
#define im_height 32
static char im_bits[] = {
0x02,0x80,0x20,0x41,0x24,0x15,0x25,0x08,0x10,0x40,0x80,0x22,0x42,0x89,0x14,
0x20,0x08,0x04,0x42,0x85,0xa1,0x50,0x08,0x10,0x04,0x02,0xa1,0x42,0x50,0x28,
0x04,0x08,0x02,0x81,0x48,0x21,0x54,0x14,0x09,0x24,0x00,0x41,0xa0,0x80,0x25,
0x09,0x05,0x15,0x10,0x24,0x10,0x40,0x82,0x40,0xa2,0x0a,0x28,0x0a,0x09,0x20,
0x41,0x20,0x90,0x24,0x04,0x85,0x04,0x82,0x28,0x90,0x50,0x10,0x82,0x02,0x02,
0x45,0x10,0x54,0x28,0x08,0x42,0x00,0x81,0x20,0x88,0x2a,0x14,0x25,0x22,0x80,
0x40,0x80,0x84,0x24,0x8a,0x14,0x10,0x82,0x20,0x40,0x42,0x28,0x84,0x0a,0x08,
0x81,0x10,0x20,0x29,0x94,0xa2,0x24,0x80,0x00,0x08,0x82,0x14,0x29,0x41,0x10,
0x42,0x84,0x14,0x45,0x88,0x10,0x20,0x08
};
