#define im_width 32
#define im_height 32
static char im_bits[] = {
0x20,0x91,0x84,0x10,0x04,0x00,0x10,0x02,0x00,0x01,0x00,0x10,0x20,0x48,0x42,
0x00,0x02,0x02,0x10,0x22,0x08,0x80,0x00,0x00,0x20,0x04,0x44,0x04,0x40,0x20,
0x00,0x20,0x04,0x04,0x11,0x01,0x40,0x00,0x00,0x08,0x00,0x24,0x22,0x42,0x44,
0x00,0x00,0x00,0x00,0x20,0x44,0x08,0x88,0x84,0x00,0x00,0x00,0x00,0x88,0x10,
0x89,0x10,0x00,0x02,0x00,0x84,0x08,0x10,0x10,0x00,0x40,0x00,0x40,0x90,0x10,
0x22,0x02,0x02,0x02,0x00,0x80,0x00,0x20,0x02,0x12,0x48,0x00,0x24,0x00,0x00,
0x21,0x00,0x40,0x02,0x42,0x00,0x04,0x08,0x00,0x12,0x08,0x40,0x08,0x00,0x20,
0x11,0x42,0x24,0x00,0x00,0x00,0x00,0x04,0x42,0x88,0x00,0x40,0x00,0x00,0x24,
0x08,0x84,0x08,0x01,0x00,0x10,0x10,0x00
};
