#define im_width 32
#define im_height 32
static char im_bits[] = {
0x52,0x95,0x54,0x49,0x04,0x21,0x09,0x49,0xb2,0x94,0x52,0x92,0x04,0x25,0xa4,
0x24,0xaa,0x48,0x89,0x92,0x21,0x29,0x29,0x24,0x4a,0x42,0x52,0x49,0x92,0x94,
0x04,0x49,0x24,0x29,0xa9,0x92,0x49,0x22,0x25,0x24,0x92,0x94,0x48,0x49,0xa4,
0x22,0x29,0x49,0x12,0x94,0x42,0x92,0x52,0x25,0x94,0x24,0x24,0x48,0x25,0x49,
0xa5,0x92,0x48,0x49,0x48,0x4a,0x12,0x92,0x92,0x48,0xa5,0x24,0x4a,0x12,0x92,
0x92,0x90,0xa4,0x24,0x24,0x25,0x49,0x4a,0x49,0x49,0x92,0x28,0x49,0x92,0x24,
0x45,0x92,0x24,0x49,0x94,0x24,0x4a,0x92,0x22,0x49,0x90,0x24,0x4a,0x49,0x25,
0x49,0x11,0x25,0x4a,0x4a,0x54,0x48,0xa8,0x28,0x21,0x25,0x82,0xa2,0x4a,0x49,
0x2a,0x09,0x29,0x92,0x48,0x52,0xa2,0x24
};
