#define im_width 32
#define im_height 32
static char im_bits[] = {
0x48,0x24,0x01,0x00,0x00,0x00,0x00,0x00,0x00,0x00,0x42,0x12,0x44,0x22,0x04,
0x00,0x00,0x00,0x00,0x00,0x08,0x00,0x20,0x12,0x40,0x12,0x01,0x00,0x00,0x00,
0x02,0x00,0x00,0x00,0x90,0x08,0x44,0x24,0x00,0x10,0x00,0x00,0x00,0x00,0x08,
0x40,0x12,0x01,0x40,0x04,0x00,0x10,0x00,0x00,0x20,0x00,0x08,0x20,0x00,0x01,
0x40,0x82,0x04,0x10,0x00,0x00,0x00,0x02,0x04,0x00,0x20,0x00,0x20,0x12,0x01,
0x08,0x00,0x00,0x44,0x10,0x40,0x00,0x00,0x00,0x04,0x48,0x80,0x00,0x80,0x00,
0x02,0x04,0x00,0x00,0x08,0x10,0x04,0x11,0x40,0x00,0x10,0x40,0x00,0x00,0x00,
0x00,0x82,0x24,0x40,0x02,0x08,0x00,0x04,0x10,0x00,0x00,0x00,0x40,0x40,0x04,
0x10,0x01,0x02,0x20,0x00,0x00,0x04,0x00
};
