#define im_width 32
#define im_height 32
static char im_bits[] = {
0x24,0x81,0x00,0x12,0x00,0x02,0x42,0x20,0x08,0x08,0x08,0x04,0x40,0x40,0x40,
0x00,0x08,0x12,0x02,0x48,0x01,0x00,0x10,0x01,0x90,0x20,0x04,0x00,0x02,0x84,
0x40,0x24,0x10,0x01,0x08,0x01,0x00,0x90,0x00,0x08,0x24,0x04,0x08,0x20,0x40,
0x00,0x21,0x01,0x00,0x48,0x00,0x04,0x09,0x01,0x44,0x20,0x20,0x80,0x00,0x04,
0x00,0x12,0x88,0x00,0x22,0x00,0x01,0x24,0x00,0x22,0x20,0x00,0x44,0x00,0x09,
0x11,0x08,0x08,0x00,0x00,0x40,0x42,0x48,0x22,0x00,0x00,0x01,0x04,0x12,0x04,
0x10,0x40,0x80,0x20,0x41,0x04,0x10,0x04,0x00,0x00,0x02,0x00,0x49,0x24,0x20,
0x49,0x00,0x00,0x04,0x00,0x80,0x08,0x20,0x88,0x24,0x20,0x00,0x01,0x00,0x01,
0x22,0x10,0x01,0x04,0x00,0x02,0x48,0x20
};
