#define im_width 32
#define im_height 32
static char im_bits[] = {
0x50,0x08,0x11,0x12,0x45,0x51,0xa2,0x50,0x08,0x85,0x14,0x05,0x52,0x14,0x41,
0x54,0x08,0x51,0x14,0x21,0x52,0x84,0x24,0x45,0x88,0x52,0x92,0x08,0x22,0x44,
0x22,0x52,0x94,0x08,0x89,0x84,0x21,0x29,0x91,0x28,0x94,0x44,0x24,0x85,0x82,
0x88,0x44,0x28,0x54,0x52,0x12,0x45,0x04,0x42,0x52,0x10,0x52,0x09,0x89,0x4a,
0x12,0x29,0x91,0x48,0x48,0x44,0x44,0x22,0x11,0x11,0x49,0x44,0xa2,0xa4,0x84,
0x12,0x0a,0x89,0x28,0x44,0x50,0x24,0x42,0x29,0x05,0x89,0x14,0x41,0xa8,0x50,
0x22,0x0a,0x12,0x45,0xa4,0x50,0x48,0x88,0x12,0x25,0x42,0x29,0x42,0x44,0x14,
0x42,0x94,0x12,0xa1,0x48,0x11,0x52,0x14,0x05,0xa2,0x08,0x42,0x54,0x0a,0x51,
0x94,0x90,0x50,0x82,0x91,0x12,0x45,0x2a
};
