#define im_width 32
#define im_height 32
static char im_bits[] = {
0x04,0x04,0x12,0x00,0x40,0x40,0x00,0x10,0x00,0x00,0x40,0x02,0x08,0x89,0x04,
0x20,0x40,0x00,0x00,0x04,0x02,0x10,0x48,0x00,0x00,0x81,0x00,0x10,0x10,0x00,
0x01,0x02,0x04,0x09,0x48,0x20,0x00,0x00,0x00,0x00,0x08,0x48,0x88,0x04,0x20,
0x01,0x01,0x10,0x00,0x00,0x10,0x00,0x09,0x24,0x00,0x11,0x40,0x00,0x21,0x00,
0x80,0x00,0x02,0x20,0x04,0x24,0x40,0x02,0x00,0x00,0x04,0x00,0x48,0x40,0x00,
0x12,0x80,0x04,0x48,0x00,0x00,0x80,0x00,0x20,0x09,0x08,0x80,0x04,0x40,0x80,
0x04,0x00,0x00,0x09,0x10,0x20,0x04,0x00,0x80,0x04,0x20,0x40,0x02,0x00,0x08,
0x09,0x08,0x08,0x00,0x00,0x90,0x20,0x20,0x48,0x00,0x00,0x82,0x00,0x01,0x04,
0x00,0x00,0x48,0x20,0x10,0x24,0x80,0x00
};
