#define im_width 32
#define im_height 32
static char im_bits[] = {
0x94,0x42,0x12,0x48,0x22,0x94,0xd4,0x4a,0x54,0x25,0x21,0x28,0x84,0x24,0xa5,
0x42,0x52,0x92,0x44,0x2a,0x4a,0x92,0x94,0x48,0x90,0x24,0x49,0x92,0x25,0x49,
0x92,0x24,0x92,0x24,0x49,0x49,0x24,0x49,0x12,0x49,0x92,0x24,0xa9,0x24,0x24,
0x29,0x05,0x49,0x92,0x44,0xa8,0x24,0x24,0x49,0x25,0x49,0x52,0x92,0x48,0x92,
0x8a,0x94,0x92,0x24,0x50,0x22,0x4a,0x92,0x92,0xa4,0x90,0x24,0x4a,0x4a,0x4a,
0x49,0x90,0x90,0x12,0x49,0x25,0x25,0xa4,0x94,0x49,0x49,0x25,0x21,0x12,0x92,
0x48,0x4a,0xa4,0x24,0x49,0x49,0x4a,0x49,0x12,0x92,0x10,0x92,0xa4,0x24,0xa5,
0x24,0x49,0x92,0x4a,0x49,0x92,0x24,0x28,0x92,0x24,0x49,0xa2,0x24,0x25,0x49,
0x8a,0x4a,0x94,0x92,0x28,0x48,0x21,0x24
};
