#define im_width 32
#define im_height 32
static char im_bits[] = {
0x92,0x88,0x14,0xa2,0x12,0x29,0x41,0x0a,0x48,0x42,0x2a,0x51,0x49,0x94,0x48,
0x44,0x24,0x21,0x91,0x12,0x21,0x25,0x25,0x52,0x94,0x88,0x90,0x88,0x22,0x22,
0x92,0x12,0x44,0x49,0x09,0xa4,0x14,0x12,0x52,0x09,0xa2,0xa4,0x88,0xa4,0x88,
0x24,0x29,0x11,0x52,0x92,0x84,0xa4,0x44,0x84,0x28,0x09,0x92,0x28,0x41,0xa4,
0x92,0x42,0x4a,0x11,0x44,0x94,0x24,0x4a,0x11,0x11,0x89,0x48,0xa4,0xa4,0x24,
0x11,0x09,0x89,0x48,0x52,0xa4,0x24,0x12,0x89,0x89,0x48,0x22,0x11,0x24,0x91,
0x94,0xa4,0x24,0x25,0x21,0x09,0x92,0x90,0x94,0xa4,0x10,0x12,0x11,0x11,0x4a,
0x49,0x22,0x4a,0x21,0x91,0xa4,0x48,0x94,0x44,0x12,0x11,0x11,0x49,0x44,0x52,
0xa2,0x24,0x29,0x89,0x8a,0x44,0x22,0x11
};
