#define im_width 32
#define im_height 32
static char im_bits[] = {
0x25,0x25,0x89,0x92,0x49,0x48,0x2a,0x24,0x92,0x92,0x50,0x49,0x24,0x55,0x85,
0x52,0x4a,0x82,0x2a,0x85,0x51,0x2a,0x50,0x28,0x8a,0x54,0xa5,0x4a,0x29,0x81,
0x0a,0x52,0x52,0x5a,0x64,0x89,0x84,0x42,0x09,0x29,0x2a,0x2a,0x52,0x92,0xa4,
0xa4,0xa4,0x24,0x92,0x48,0x49,0x49,0x94,0x12,0x12,0x52,0x22,0xa5,0xaa,0x84,
0x4a,0x48,0x82,0x2a,0x94,0x2a,0x59,0x94,0xa1,0x42,0x42,0x21,0x0a,0x94,0x94,
0x4a,0x6a,0x29,0x29,0x54,0x88,0x52,0x52,0x21,0x29,0x84,0x84,0x4a,0x52,0xa9,
0x2a,0x29,0x84,0x2a,0x48,0x42,0x29,0xa0,0x92,0x54,0xca,0x26,0x25,0x49,0x28,
0x49,0x54,0x92,0x22,0x92,0x84,0x24,0x4a,0xa9,0x32,0x49,0x48,0x22,0x44,0x4a,
0x25,0x95,0xaa,0x28,0x29,0xa1,0x88,0x42
};
