#define im_width 32
#define im_height 32
static char im_bits[] = {
0x24,0x09,0x00,0x00,0x00,0x40,0x92,0x24,0x92,0x04,0x00,0x00,0x00,0x48,0x92,
0x24,0x92,0x00,0x00,0x00,0x00,0x92,0x52,0x29,0x92,0x00,0x00,0x00,0x00,0x24,
0x89,0x24,0x92,0x00,0x20,0x00,0x00,0x49,0x82,0x24,0x12,0x00,0x08,0x00,0x20,
0x49,0x21,0x29,0x02,0x00,0x08,0x00,0x90,0x14,0x41,0x22,0x02,0x40,0x08,0x08,
0x90,0x04,0x20,0x21,0x02,0x90,0x02,0x00,0x50,0x02,0x24,0x25,0x02,0x48,0x00,
0x00,0x20,0x01,0x92,0x24,0x02,0x48,0x00,0x00,0x24,0x81,0x24,0x29,0x00,0x04,
0x00,0x00,0x49,0x28,0xa9,0x24,0x00,0x01,0x00,0x00,0x29,0x90,0x84,0x24,0x00,
0x01,0x10,0x00,0x22,0x48,0x22,0x29,0x88,0x02,0x00,0x00,0x00,0x48,0x92,0x24,
0x12,0x00,0x00,0x00,0x40,0xa5,0xa4,0x24
};
