#define im_width 32
#define im_height 32
static char im_bits[] = {
0x44,0x48,0x50,0x49,0x91,0x42,0x05,0x11,0x44,0x14,0x52,0x44,0x94,0x50,0x12,
0x49,0x42,0x82,0x48,0x24,0x48,0x2a,0x91,0x44,0x22,0x81,0x44,0x08,0x24,0x94,
0x48,0x51,0x42,0x09,0x11,0x0a,0x14,0x51,0xa2,0x50,0x42,0x82,0x04,0x05,0x48,
0x94,0x54,0x50,0x12,0x49,0x20,0x85,0x22,0x09,0x25,0x29,0x94,0x50,0x42,0x84,
0x10,0x45,0x14,0x29,0x22,0x88,0xa0,0x80,0xa4,0x92,0x0a,0x2a,0x02,0x24,0xa4,
0x84,0xaa,0xa4,0x88,0x28,0x10,0x81,0x22,0x41,0x25,0x2a,0x24,0x15,0x90,0x40,
0x89,0xa0,0x25,0x15,0x11,0x0a,0x90,0x20,0xa2,0x50,0x05,0x45,0x0a,0x05,0xa8,
0x28,0x50,0xa8,0x02,0x42,0x45,0x09,0x54,0x89,0x08,0x51,0x11,0x12,0x29,0x05,
0x44,0x24,0x42,0xa8,0x94,0x48,0x14,0x11
};
