#define im_width 32
#define im_height 32
static char im_bits[] = {
0x40,0x12,0x80,0x00,0x0a,0x40,0x15,0x24,0xa0,0x12,0x40,0x91,0x04,0x02,0x09,
0x00,0x10,0x28,0x20,0x25,0x42,0x01,0x05,0x00,0x08,0x24,0x50,0x2a,0x91,0x40,
0x42,0x20,0x00,0x0a,0x08,0x81,0x54,0x48,0x21,0x14,0x00,0x01,0x84,0x00,0x25,
0x92,0x10,0x24,0x00,0x08,0x42,0x91,0x49,0x41,0x08,0x00,0x20,0x14,0x21,0x25,
0x05,0x20,0x24,0x00,0x50,0x81,0x80,0x54,0x02,0x14,0x89,0x00,0x48,0x02,0x24,
0x92,0x01,0xa0,0x00,0x00,0x54,0x0a,0x52,0x4a,0x40,0x40,0x40,0x00,0x04,0x09,
0x05,0x49,0x10,0x21,0x20,0x08,0x42,0x84,0x84,0x20,0x08,0x90,0x10,0x05,0xa2,
0x04,0x42,0x50,0x00,0x48,0x08,0x02,0x4a,0x01,0x21,0x48,0x00,0x28,0x44,0x01,
0x4a,0x82,0x10,0x94,0x40,0x10,0x82,0x00
};
