#define im_width 32
#define im_height 32
static char im_bits[] = {
0x48,0x08,0x92,0x04,0x81,0x40,0x00,0x20,0x08,0x12,0x92,0x04,0x10,0x40,0x00,
0x20,0x40,0x02,0x92,0x04,0x05,0x48,0x00,0x20,0x20,0x02,0x92,0x04,0x40,0x40,
0x00,0x20,0x02,0x0a,0x92,0x04,0x24,0x40,0x00,0x20,0x80,0x08,0x12,0x09,0x08,
0x40,0x20,0x00,0x42,0x12,0x02,0x51,0x08,0x00,0x08,0x02,0x40,0x22,0x21,0x00,
0x09,0x04,0x80,0x28,0x40,0x90,0x04,0x02,0x08,0x01,0x20,0x20,0x02,0x48,0x8a,
0x04,0x20,0x01,0x00,0x20,0x04,0x48,0x88,0x04,0x20,0x01,0x11,0x20,0x04,0x08,
0x80,0x04,0x20,0x41,0x12,0x20,0x04,0x14,0x80,0x04,0x40,0x40,0x12,0x20,0x0a,
0x00,0x80,0x04,0x80,0x4a,0x12,0x20,0x08,0x00,0x80,0x04,0x51,0x48,0x12,0x20,
0x00,0x01,0x80,0x04,0x04,0x20,0x12,0x20
};
