#define im_width 32
#define im_height 32
static char im_bits[] = {
0x24,0x54,0x14,0x49,0xa9,0x92,0x52,0x4a,0x22,0x49,0xa4,0x28,0x4a,0x52,0x15,
0x45,0x94,0x44,0x48,0xa9,0x22,0x95,0x52,0x12,0x54,0x52,0x89,0xa4,0x49,0x12,
0x2a,0x29,0x92,0xa4,0x48,0x45,0x24,0xa9,0x52,0x54,0xa9,0x42,0x8a,0x42,0x4a,
0x94,0x50,0x4a,0x90,0x4a,0x25,0x29,0x25,0x29,0x25,0x49,0x4a,0x42,0x54,0x92,
0x91,0x54,0x85,0x24,0x2a,0x85,0xa8,0x4a,0x49,0x29,0x29,0x51,0x12,0x4a,0x45,
0x8a,0xa4,0x92,0x48,0x29,0x29,0x24,0x15,0x52,0x4a,0xa9,0xa4,0x44,0xa8,0x42,
0x52,0x29,0x89,0x94,0x14,0x4a,0x52,0x4a,0xa1,0x90,0x4a,0x29,0x4a,0x2b,0x10,
0xa2,0x2a,0xa4,0xa5,0x4a,0xa2,0x24,0x2a,0x92,0x94,0x92,0x48,0x92,0x92,0x24,
0xa5,0x24,0x24,0x49,0x29,0x55,0x49,0x52
};
