#define im_width 32
#define im_height 32
static char im_bits[] = {
0x20,0x8a,0x50,0x84,0x05,0x10,0x82,0x10,0x50,0x42,0x08,0x42,0x42,0x08,0x51,
0x08,0x08,0x21,0x04,0x21,0x21,0xa4,0x20,0x24,0x84,0x00,0x8a,0x80,0x10,0x4a,
0x10,0x15,0x42,0x20,0x41,0x40,0x08,0x05,0x08,0x09,0x22,0x50,0x21,0x20,0x44,
0x02,0x04,0x25,0x10,0x49,0x51,0x80,0x22,0x00,0x02,0x12,0x80,0x2a,0xa8,0x88,
0x14,0x40,0x01,0x11,0x42,0x02,0x24,0x40,0x08,0x94,0x40,0x0a,0xa0,0x40,0x0a,
0x20,0x05,0x09,0x40,0x25,0x10,0xa4,0x14,0x80,0xa2,0x80,0x40,0x12,0x08,0x12,
0x12,0x88,0x41,0x22,0x42,0x11,0x14,0x88,0x08,0x40,0x20,0x01,0x90,0x0a,0x82,
0x54,0x41,0x20,0x10,0x00,0x0a,0x24,0x42,0x92,0xa0,0x80,0x08,0x02,0x04,0x15,
0xa2,0x28,0x11,0x40,0x04,0x20,0x42,0x09
};
