#define im_width 32
#define im_height 32
static char im_bits[] = {
0x00,0x22,0x20,0x01,0x24,0x00,0x00,0x08,0x00,0x04,0x00,0x00,0x00,0x20,0x89,
0x10,0x24,0x00,0x00,0x00,0x00,0x02,0x00,0x02,0x40,0x10,0x09,0x10,0x00,0x00,
0x40,0x00,0x04,0x20,0x00,0x00,0x40,0x02,0x08,0x12,0x10,0x80,0x40,0x00,0x00,
0x08,0x00,0x00,0x00,0x01,0x01,0x09,0x11,0x00,0x12,0x10,0x00,0x08,0x00,0x00,
0x80,0x10,0x40,0x00,0x04,0x00,0x01,0x22,0x10,0x00,0x08,0x00,0x80,0x08,0x00,
0x00,0x00,0x10,0x21,0x09,0x04,0x00,0x00,0x00,0x10,0x01,0x04,0x10,0x00,0x10,
0x20,0x00,0x20,0x80,0x00,0x02,0x00,0x21,0x40,0x10,0x02,0x00,0x04,0x00,0x20,
0x02,0x01,0x02,0x00,0x00,0x20,0x10,0x04,0x24,0x00,0x00,0x40,0x00,0x04,0x01,
0x00,0x80,0x20,0x08,0x08,0x04,0x00,0x10
};
